<svg width="27" height="24" viewBox="0 0 27 24" fill="none" xmlns="http://www.w3.org/2000/svg">
<path d="M19.7828 1.91197e-08C18.5034 0.000217109 17.2472 0.33168 16.143 0.960353C15.0389 1.58903 14.1267 2.49225 13.5 3.57728C12.8732 2.492 11.9607 1.5886 10.8562 0.959914C9.7517 0.331225 8.49507 -9.18968e-05 7.2154 1.91197e-08C5.25553 0.102968 3.41192 0.936988 2.06807 2.32857C0.724225 3.72014 -0.0163962 5.56214 0.000275476 7.47139C0.000275476 17.2075 13.5 24 13.5 24C13.5 24 26.9997 17.211 26.9997 7.47139C27.0164 5.56186 26.2755 3.71962 24.9313 2.32799C23.5871 0.936367 21.743 0.102535 19.7828 1.91197e-08Z" fill="white"/>
</svg>
