<svg width="30" height="30" viewBox="0 0 30 30" fill="none" xmlns="http://www.w3.org/2000/svg">
<path d="M11 27H8.33333C5.38781 27 3 24.5188 3 21.4581V12.7403C3 10.8024 3.97415 9.00525 5.56905 8.00084L12.2357 3.80247C13.9348 2.73251 16.0652 2.73251 17.7643 3.80247L24.4309 8.00084C26.0259 9.00525 27 10.8024 27 12.7403V21.4581C27 24.5188 24.6121 27 21.6667 27H19M11 27V21.4581C11 19.1626 12.7908 17.3018 15 17.3018C17.2092 17.3018 19 19.1626 19 21.4581V27M11 27H19" stroke="white" stroke-width="5" stroke-linecap="round" stroke-linejoin="round"/>
</svg>
