<svg width="22" height="24" viewBox="0 0 22 24" fill="none" xmlns="http://www.w3.org/2000/svg">
<path d="M16.1223 0H5.87889C2.16333 0 0 2.136 0 5.796V18.192C0 21.912 2.16333 24 5.87889 24H16.1223C19.8978 24 22 21.912 22 18.192V5.796C22 2.136 19.8978 0 16.1223 0Z" fill="white"/>
<path fill-rule="evenodd" clip-rule="evenodd" d="M6.20895 5.57983V5.59183C5.68217 5.59183 5.25562 6.01183 5.25562 6.52783C5.25562 7.04383 5.68217 7.46383 6.20895 7.46383H9.86217C10.3889 7.46383 10.8167 7.04383 10.8167 6.51463C10.8167 5.99983 10.3889 5.57983 9.86217 5.57983H6.20895ZM15.7912 12.8878H6.20895C5.68217 12.8878 5.25562 12.4678 5.25562 11.9518C5.25562 11.4358 5.68217 11.0146 6.20895 11.0146H15.7912C16.3167 11.0146 16.7445 11.4358 16.7445 11.9518C16.7445 12.4678 16.3167 12.8878 15.7912 12.8878ZM15.7911 18.3718H6.20884C5.84217 18.4198 5.48773 18.2398 5.29217 17.9398C5.09662 17.6278 5.09662 17.2318 5.29217 16.9318C5.48773 16.6198 5.84217 16.4518 6.20884 16.4878H15.7911C16.2787 16.5358 16.6466 16.9438 16.6466 17.4358C16.6466 17.9146 16.2787 18.3238 15.7911 18.3718Z" fill="#FE724C"/>
</svg>
