<svg width="24" height="26" viewBox="0 0 24 26" fill="none" xmlns="http://www.w3.org/2000/svg">
<path d="M22.8789 10.854C22.7607 9.81366 22.2726 8.84841 21.5018 8.13004C20.7309 7.41167 19.7272 6.98673 18.6689 6.93068V6.62487C18.67 5.75476 18.4967 4.89314 18.1595 4.08931C17.8223 3.28548 17.3276 2.55534 16.7038 1.941C16.0814 1.32479 15.3418 0.836157 14.5276 0.50306C13.7135 0.169962 12.8408 -0.00101258 11.9595 4.51129e-06C10.1806 0.000647574 8.47489 0.698933 7.21703 1.94144C5.95917 3.18395 5.25226 4.86904 5.25161 6.62621V6.93541C4.20742 7.00872 3.22203 7.44114 2.46704 8.15744C1.71206 8.87373 1.23522 9.82869 1.11898 10.8563L0 20.9254C0.00552738 22.2755 0.553204 23.5682 1.52286 24.5197C2.49252 25.4711 3.80511 26.0035 5.17186 26H18.8284C20.1952 26.0035 21.5075 25.4711 22.4771 24.5197C23.4468 23.5682 23.9945 22.2755 24 20.9254L22.8789 10.854ZM7.22153 6.63702C7.22137 6.02245 7.34365 5.41387 7.58163 4.84604C7.81961 4.27821 8.16869 3.76231 8.60857 3.32769C9.04844 2.89307 9.57044 2.54821 10.1452 2.31299C10.72 2.07777 11.3362 1.95684 11.9583 1.95684C12.5806 1.95625 13.1968 2.07701 13.7717 2.31225C14.3467 2.5475 14.8691 2.89245 15.3087 3.32754C15.7494 3.76169 16.0988 4.27753 16.3371 4.84545C16.5755 5.41337 16.698 6.02222 16.6975 6.63702V6.9209H7.22153V6.63702ZM8.15611 13.5204C7.99979 13.5206 7.84482 13.4903 7.70036 13.4313C7.55591 13.3723 7.42472 13.2856 7.31418 13.1764C7.20364 13.0673 7.11607 12.9377 7.05632 12.795C6.99657 12.6523 6.96591 12.4993 6.96607 12.3449C6.96591 12.1905 6.99657 12.0376 7.05632 11.8949C7.11607 11.7522 7.20364 11.6225 7.31418 11.5133C7.42472 11.4041 7.55591 11.3176 7.70036 11.2586C7.84482 11.1995 7.99979 11.1692 8.15611 11.1694C8.31266 11.1691 8.46773 11.1992 8.61246 11.2581C8.7572 11.317 8.88869 11.4035 8.99955 11.5127C9.11041 11.6218 9.19851 11.7515 9.25861 11.8943C9.3187 12.0371 9.3496 12.1903 9.34976 12.3449C9.3496 12.4996 9.3187 12.6526 9.25861 12.7954C9.19851 12.9382 9.11041 13.0679 8.99955 13.177C8.88869 13.2862 8.7572 13.3727 8.61246 13.4316C8.46773 13.4905 8.31266 13.5208 8.15611 13.5204ZM15.8466 13.5204C15.69 13.5208 15.535 13.4905 15.3902 13.4316C15.2455 13.3727 15.114 13.2862 15.0031 13.177C14.8923 13.0679 14.8042 12.9382 14.7441 12.7954C14.684 12.6526 14.6531 12.4996 14.6529 12.3449C14.6531 12.1903 14.684 12.0371 14.7441 11.8943C14.8042 11.7515 14.8923 11.6218 15.0031 11.5127C15.114 11.4035 15.2455 11.317 15.3902 11.2581C15.535 11.1992 15.69 11.1691 15.8466 11.1694C16.0029 11.1692 16.1576 11.1995 16.302 11.2586C16.4465 11.3176 16.578 11.4041 16.6885 11.5133C16.7991 11.6225 16.8866 11.7522 16.9464 11.8949C17.0061 12.0376 17.0368 12.1905 17.0366 12.3449C17.0368 12.4993 17.0061 12.6523 16.9464 12.795C16.8866 12.9377 16.7991 13.0673 16.6885 13.1764C16.578 13.2856 16.4465 13.3723 16.302 13.4313C16.1576 13.4903 16.0029 13.5206 15.8466 13.5204Z" fill="white"/>
</svg>
