<svg width="24" height="26" viewBox="0 0 24 26" fill="none" xmlns="http://www.w3.org/2000/svg">
<path d="M23.1024 12.7616C22.5204 12.1345 22.0506 11.4263 21.7107 10.6636C21.4551 10.0699 21.3261 9.43661 21.3308 8.79813V8.56773C21.3308 6.37414 20.3825 4.27042 18.6945 2.71932C17.0065 1.16821 14.717 0.296875 12.3298 0.296875C9.94199 0.296875 7.6521 1.16846 5.96368 2.71995C4.27525 4.27145 3.3266 6.37575 3.3266 8.56989V8.80233C3.33131 9.43724 3.20307 10.067 2.9489 10.6574C2.60885 11.422 2.1383 12.1321 1.55498 12.7606C1.20929 13.291 0.980905 13.8787 0.882801 14.4903C0.784696 15.1019 0.818857 15.7253 0.983316 16.3247C1.14777 16.9242 1.43925 17.4879 1.84116 17.9837C2.24307 18.4795 2.7475 18.8976 3.32549 19.214C3.33198 19.2188 3.3393 19.2226 3.34709 19.2254L3.40829 19.2577C3.5578 19.3297 3.71235 19.3923 3.87099 19.4452C3.93223 19.4671 4.00145 19.4901 4.07631 19.5141C4.29176 19.5876 4.51187 19.6492 4.73534 19.6985C4.77844 19.7069 4.82031 19.7184 4.8634 19.7236H4.87254L5.13006 19.7798C5.3104 19.8174 5.50542 19.8538 5.71751 19.8913L6.04868 19.9455C6.27552 19.9809 6.52618 20.0165 6.79272 20.0498C7.05925 20.0832 7.34394 20.1154 7.64904 20.1446C9.20371 20.2867 10.7652 20.3563 12.3276 20.353C13.2349 20.353 14.0538 20.3406 14.7967 20.3114C16.0954 20.2593 17.1525 20.1654 18.0088 20.0529C18.3751 20.0049 18.7063 19.9487 19.0012 19.8997C19.8172 19.8061 20.6069 19.5731 21.3297 19.2128C21.9076 18.8967 22.4121 18.479 22.8141 17.9835C23.2161 17.4879 23.5079 16.9244 23.6725 16.3251C23.8372 15.7259 23.8716 15.1027 23.7737 14.4912C23.6759 13.8797 23.4478 13.292 23.1024 12.7616Z" fill="white"/>
<path d="M15.846 22.1068C14.7243 21.7193 13.5262 21.5538 12.33 21.6211C11.1339 21.5538 9.93583 21.7194 8.81408 22.1068C8.63667 22.203 8.49562 22.3469 8.41021 22.5192C8.32481 22.6914 8.29914 22.8837 8.33656 23.0698C8.52451 23.5994 8.86713 24.0714 9.32717 24.4342C9.78722 24.797 10.3469 25.0367 10.9451 25.1271C11.8542 25.3535 12.8125 25.3535 13.7216 25.1271C14.3199 25.037 14.8797 24.7973 15.3398 24.4345C15.7999 24.0716 16.1426 23.5996 16.3303 23.0698C16.3673 22.883 16.3406 22.6903 16.2539 22.5179C16.1672 22.3456 16.0248 22.202 15.846 22.1068Z" fill="white"/>
</svg>
